<svg width="477" height="500" viewBox="0 0 477 500" fill="none" xmlns="http://www.w3.org/2000/svg">
<g clip-path="url(#clip0_65_1728)">
<rect width="477" height="500" rx="26" fill="url(#paint0_linear_65_1728)"/>
<path d="M285.556 344.939C328.122 339.776 359.503 356.059 369.715 387.95C379.935 419.839 363.685 557.489 363.685 557.489C384.338 675.775 368.367 702.343 401.278 714.161C427.216 723.478 506.016 778.062 508.279 792.811C510.542 807.56 478.574 784.994 459.04 774.295C439.506 763.595 409.18 769.291 371.573 762.649C333.965 756.006 322.45 644.819 302.629 628.967C282.807 613.114 285.556 344.939 285.556 344.939Z" fill="#FFA8A7"/>
<path d="M282.715 341.442C282.715 341.442 300.404 336.861 320.196 340.273C339.996 343.683 360.81 357 368.64 374.223C388.136 417.111 379.813 419.163 387.56 463.083C401.415 541.627 384.319 540.7 384.319 540.7L355.637 528.125L282.707 341.444L282.715 341.442Z" fill="white"/>
<path d="M177.961 345.641C141.02 347.72 117.14 353.828 117.14 353.828C117.14 353.828 153.447 392.592 130.104 461.414C113.573 510.138 100.341 512.274 69.3632 521.574C152.461 674.279 67.6465 716.913 67.6465 716.913C67.6465 716.913 126.885 759.979 253.203 749.664C364.171 740.606 348.435 729.63 348.435 729.63L336.467 648.099L348.435 528.421C348.435 528.421 355.371 394.37 306.899 341.78C293.408 340.048 282.518 339.661 267.758 340.338C267.758 340.338 214.903 343.553 177.961 345.641Z" fill="white"/>
<path d="M339.548 718.683C287.869 727.65 214.072 716.675 188.519 690.292C162.958 663.908 148.903 601.521 160.773 565.099C172.634 528.684 170.449 460.217 162.934 419.618L158.531 418.053C157.402 430.06 155.023 443.284 150.605 457.734C135.695 506.485 123.761 508.622 95.8215 517.927C113.36 598.473 94.2734 713.378 94.2734 713.378C94.2734 713.378 147.702 756.469 261.631 746.147C293.973 743.212 321.268 734.375 339.548 718.683Z" fill="#E3E3E3"/>
<path d="M264.428 44.7974C188.342 32.5893 104.562 77.9611 104.562 160.468C119.323 227.135 137.599 283.694 201.09 293.878L246.681 301.191C310.181 311.375 355.812 248.94 371.6 186.593C390.065 113.667 340.515 57.0055 264.428 44.7974Z" fill="#263238"/>
<path d="M312.85 41.6762C258.794 32.1844 220.73 71.2155 212.057 130.373C204.822 179.745 204.329 228.809 249.436 236.727L281.826 242.414C326.94 250.332 366.141 207.07 377.358 158.596C390.477 101.895 366.906 51.168 312.85 41.6762Z" fill="#263238"/>
<path d="M223.353 34.6101C164.792 27.776 104.534 79.7166 95.1379 122.31C87.2996 157.858 125.738 168.345 174.604 174.046L209.693 178.14C258.566 183.841 293.686 148.89 305.838 113.988C320.05 73.1637 281.913 41.4442 223.353 34.6101Z" fill="#263238"/>
<path d="M338.577 133.389C351.745 144.323 364.711 170.545 350.632 246.987C338.698 311.777 315.04 324.461 303.719 327.388C292.389 330.323 272.432 324.227 253.12 317.735L272.355 323.789L272.139 345.164C272.139 345.164 273.831 364.233 264.687 393.931C259.325 411.332 250.793 415.533 227.933 393.931C205.073 372.329 183.334 347.583 183.334 347.583L174.389 256.002C174.389 256.002 160.891 265.468 143.86 244.979C129.806 228.062 128.161 203.081 142.982 192.187C157.794 181.302 180.775 188.599 186.847 208.484C186.847 208.484 191.008 175.44 240.751 166.691C277.875 160.184 319.297 163.473 338.577 133.389Z" fill="#FFA8A7"/>
<path d="M210.075 178.593C204.076 183.173 199.689 205.783 197.448 220.224C196.375 227.151 190.102 231.997 183.127 231.384L186.852 208.484C186.852 208.5 186.941 172.013 210.075 178.593Z" fill="#263238"/>
<path d="M374.384 195.865C373.127 195.76 371.804 195.672 370.441 195.591C357.709 194.881 340.953 195.349 330.616 198.913C317.658 203.404 312.884 207.92 305.861 208.323C298.362 208.678 293.919 204.63 280.663 201.493C270.092 199.018 252.126 200.34 238.289 202.429C236.806 202.655 235.362 202.888 233.983 203.13C231.613 203.542 228.839 206.775 228.75 210.379C228.662 213.992 231.201 216.725 232.242 218.314C232.701 219.015 233.121 220.039 233.403 221.523C234.443 227.103 234.58 237.884 236.967 243.754C237.926 246.109 239.346 248.995 241.821 251.559C242.628 252.39 243.466 253.124 244.426 253.801C244.926 254.148 245.417 254.47 245.95 254.785C247.296 255.575 248.804 256.252 250.554 256.793C250.812 256.873 251.078 256.954 251.336 257.01C251.731 257.115 252.158 257.228 252.578 257.317C252.997 257.414 253.433 257.486 253.876 257.575C255.158 257.8 256.545 257.962 258.037 258.01C258.609 258.051 259.214 258.059 259.827 258.067C260.545 258.059 261.302 258.051 262.077 258.01C279.51 257.188 287.388 248.544 292.33 239.795C297.281 231.054 297.032 219.056 305.071 218.669C305.337 218.661 305.595 218.652 305.837 218.677C306.079 218.685 306.321 218.717 306.539 218.757C312.376 219.83 310.86 230.909 314.029 238.682C315.247 241.666 316.827 244.609 319.101 247.084C319.504 247.528 319.916 247.947 320.359 248.358C320.577 248.576 320.803 248.761 321.045 248.955C321.278 249.156 321.512 249.342 321.762 249.527C321.98 249.697 322.19 249.85 322.424 250.003C322.811 250.261 322.972 250.374 323.141 250.479C323.327 250.6 323.512 250.713 323.713 250.826C323.834 250.906 323.972 250.987 324.109 251.06C326.028 252.132 328.245 252.962 330.858 253.47C331.059 253.511 331.277 253.551 331.487 253.583C333.946 254.019 336.744 254.18 339.921 253.995C356.25 253.083 362.563 243.27 365.668 237.11C368.764 230.941 370.546 220.096 372.272 214.347C372.651 213.073 373.288 212.073 373.973 211.315C375.255 209.871 377.787 206.436 378.255 202.824C378.722 199.211 376.554 196.051 374.384 195.865ZM288.412 232.014C287.436 235.328 285.501 240.134 281.51 244.206L281.501 244.214C277.478 248.302 271.349 251.64 262.004 251.971C252.554 252.317 247.32 248.673 244.353 244.246C244.168 243.972 243.99 243.697 243.837 243.423C243.66 243.141 243.506 242.875 243.361 242.601C243.216 242.351 243.087 242.093 242.966 241.827C242.853 241.601 242.748 241.359 242.644 241.133C242.555 240.948 242.474 240.762 242.402 240.577C242.321 240.408 242.257 240.238 242.2 240.077C242.095 239.803 241.982 239.513 241.894 239.238V239.23C241.595 238.392 241.354 237.577 241.16 236.779C241.152 236.763 241.152 236.747 241.144 236.714C241.023 236.215 240.902 235.715 240.805 235.247C240.628 234.392 240.491 233.586 240.378 232.868C240.354 232.715 240.329 232.554 240.305 232.409C240.281 232.263 240.257 232.118 240.233 231.973C239.313 226.087 238.564 214.459 241.749 211.661C244.829 208.968 253.061 205.719 265.955 206.307C266.398 206.307 266.858 206.331 267.334 206.372C269.31 206.501 271.269 206.735 273.196 207.081C273.962 207.21 274.712 207.364 275.454 207.525C277.454 207.96 279.373 208.492 281.098 209.097C281.695 209.307 282.275 209.516 282.816 209.742C283.469 209.992 284.082 210.274 284.67 210.549C284.791 210.605 284.912 210.662 285.041 210.734C285.275 210.847 285.501 210.96 285.711 211.089C287.436 212.008 288.718 213.016 289.371 214.008C291.694 217.54 290.355 225.305 288.412 232.014ZM364.321 225.579C362.983 230.28 360.104 240.432 350.686 245.286C348.001 246.673 344.751 247.632 340.881 247.882C330.584 248.6 325.068 244.649 322.109 239.956C322.093 239.924 322.069 239.892 322.061 239.867C321.948 239.69 321.835 239.513 321.738 239.335C321.617 239.126 321.496 238.916 321.391 238.722C321.335 238.618 321.278 238.513 321.222 238.4C321.069 238.102 320.924 237.787 320.794 237.481C320.641 237.126 320.496 236.771 320.359 236.408C320.287 236.239 320.222 236.061 320.158 235.884C320.117 235.779 320.093 235.691 320.061 235.586C320.004 235.433 319.964 235.287 319.924 235.142C319.892 235.021 319.843 234.908 319.819 234.803C319.343 233.223 319.061 231.715 318.892 230.425C318.037 223.869 317.884 216.185 320.593 212.395C323.302 208.605 333.164 204.106 342.469 202.493C344.614 202.122 346.614 201.872 348.468 201.743C348.71 201.727 348.944 201.711 349.178 201.703C349.436 201.687 349.686 201.679 349.944 201.663C350.654 201.631 351.347 201.622 352.008 201.614C352.258 201.614 352.508 201.614 352.758 201.622C353.089 201.63 353.419 201.639 353.726 201.655C354.282 201.671 354.814 201.703 355.33 201.751C356.387 201.84 357.379 201.961 358.282 202.13C358.515 202.171 358.749 202.219 358.975 202.267C359.032 202.275 359.096 202.284 359.153 202.308C359.298 202.34 359.459 202.364 359.62 202.413C359.854 202.453 360.096 202.525 360.322 202.582C360.612 202.654 360.894 202.743 361.16 202.816C361.66 202.969 362.112 203.13 362.531 203.308C362.62 203.34 362.692 203.364 362.773 203.404C364.136 203.969 365.152 204.606 365.829 205.251C368.434 207.751 366.014 219.556 364.321 225.579Z" fill="#37474F"/>
<path d="M232.179 203.928L167.462 188.559C174.864 190.978 180.517 195.341 185.234 204.275L230.067 215.056L232.179 203.928Z" fill="#37474F"/>
<path d="M267.511 223.525C266.995 228.25 262.891 231.669 258.351 231.153C253.803 230.645 250.538 226.403 251.054 221.678C251.57 216.953 255.674 213.542 260.222 214.05C264.77 214.566 268.035 218.807 267.511 223.525Z" fill="#263238"/>
<path d="M286.202 280.571C286.202 280.571 291.852 289.479 297.65 290.203C303.084 290.882 310.506 284.604 310.506 284.604C309.541 291.53 303.326 296.239 296.616 295.13C289.906 294.02 285.246 287.504 286.202 280.571Z" fill="#F28F8F"/>
<path d="M351.572 190.261L330.695 184.439C331.921 178.085 338.71 175.537 344.395 177.158C350.08 178.771 352.797 183.907 351.572 190.261Z" fill="#263238"/>
<path d="M271.972 187.286L251.241 193.591C248.863 187.568 253.225 181.778 258.885 180.085C264.538 178.392 269.594 181.262 271.972 187.286Z" fill="#263238"/>
<path d="M337.513 223.526C336.997 228.251 332.893 231.662 328.345 231.154C323.797 230.646 320.531 226.405 321.055 221.679C321.571 216.954 325.676 213.535 330.215 214.052C334.763 214.56 338.037 218.809 337.513 223.526Z" fill="#263238"/>
<path d="M304.687 218.709L302.356 269.614L328.877 262.453L306.38 218.709C305.638 218.66 305.058 218.652 304.687 218.709Z" fill="#F28F8F"/>
<path d="M272.569 323.728C252.096 317.632 191.605 292.385 187.63 274.298C187.63 274.298 188.146 285.345 199.233 298.424C210.32 311.503 272.14 336.188 272.14 336.188L272.569 323.728Z" fill="#F28F8F"/>
<path d="M291.406 765.961C253.944 758.507 123.564 745.955 82.7569 736.576C54.3184 730.035 38.837 724.995 36.0178 701.165C33.4019 678.986 39.1386 483.514 47.167 437.617C54.2103 397.348 76.9532 378.252 113.365 358.449C149.051 382.21 155.779 480.631 138.856 522.013C131.242 569.267 118.274 655.531 118.274 655.531C118.274 655.531 190.848 679.797 247.771 695.973C278.699 704.764 308.198 709.978 333.355 711.954C350.24 713.275 382.701 719.501 389.614 724.832C396.529 730.171 428.55 763.176 435.368 772.503C442.186 781.83 458.194 800.606 438.529 808.756C420.569 816.203 404.864 809.618 388.973 800.64C378.744 794.857 367.511 785.854 367.511 785.854C367.511 785.854 345.691 791.217 323.462 781.043C311.471 775.552 291.406 765.961 291.406 765.961Z" fill="#FFA8A7"/>
<path d="M116.163 354.38C116.163 354.38 74.5312 370.38 57.0201 402.195C39.5167 434.007 42.6296 449.146 39.4552 484.337C36.2807 519.528 33.3554 604.124 33.3554 604.124C33.3554 604.124 78.1614 642.228 135.205 613.334L145.76 525.988C145.76 525.988 161.104 487.997 155.558 439.441C150.023 390.897 139.29 365.006 116.163 354.38Z" fill="white"/>
</g>
<defs>
<linearGradient id="paint0_linear_65_1728" x1="216.816" y1="13.3927" x2="144.85" y2="536.625" gradientUnits="userSpaceOnUse">
<stop stop-color="#88B8DE"/>
<stop offset="1" stop-color="#DFDFE9"/>
</linearGradient>
<clipPath id="clip0_65_1728">
<rect width="477" height="500" rx="26" fill="white"/>
</clipPath>
</defs>
</svg>
